<svg width="53" height="27" viewBox="0 0 53 27" fill="none" xmlns="http://www.w3.org/2000/svg">
<path fill-rule="evenodd" clip-rule="evenodd" d="M52.1053 7.28369H29V21.7126C29 24.4163 31.1839 26.6081 33.8778 26.6081H47.2275C49.9214 26.6081 52.1053 24.4163 52.1053 21.7126V7.28369ZM33.8778 24.7723C32.1941 24.7723 30.8292 23.4024 30.8292 21.7126V9.1195H50.2762V21.7126C50.2762 23.4024 48.9112 24.7723 47.2275 24.7723H33.8778Z" fill="#57AD56"/>
<path d="M36.3328 13.6493V6.07109C36.3328 3.73202 38.2222 1.83582 40.5528 1.83582C42.8834 1.83582 44.7727 3.73202 44.7727 6.07109V13.6493C44.7727 14.1562 45.1822 14.5672 45.6873 14.5672C46.1924 14.5672 46.6019 14.1562 46.6019 13.6493V6.07109C46.6019 2.71812 43.8936 0 40.5528 0C37.2119 0 34.5037 2.71812 34.5037 6.07109V13.6493C34.5037 14.1562 34.9131 14.5672 35.4182 14.5672C35.9234 14.5672 36.3328 14.1562 36.3328 13.6493Z" fill="#57AD56"/>
<path fill-rule="evenodd" clip-rule="evenodd" d="M23.11 7.28418H0V21.7142C0 24.4181 2.1843 26.61 4.87878 26.61H18.2312C20.9257 26.61 23.11 24.4181 23.11 21.7142V7.28418ZM4.87883 24.7741C3.19478 24.7741 1.82959 23.4042 1.82959 21.7142V9.1202H21.2805V21.7142C21.2805 23.4042 19.9153 24.7741 18.2313 24.7741H4.87883Z" fill="#262626"/>
<path d="M7.33442 13.6503V6.07154C7.33442 3.73229 9.22413 1.83596 11.5552 1.83596C13.8863 1.83596 15.776 3.73229 15.776 6.07154V13.6503C15.776 14.1573 16.1856 14.5683 16.6908 14.5683C17.196 14.5683 17.6055 14.1573 17.6055 13.6503V6.07154C17.6055 2.71832 14.8967 0 11.5552 0C8.21371 0 5.50488 2.71832 5.50488 6.07154V13.6503C5.50488 14.1573 5.91444 14.5683 6.41965 14.5683C6.92487 14.5683 7.33442 14.1573 7.33442 13.6503Z" fill="#262626"/>
</svg>
